<svg width="334" height="242" viewBox="0 0 334 242" fill="none" xmlns="http://www.w3.org/2000/svg">
<g filter="url(#filter0_d_1_69)">
<rect x="50" y="20" width="214" height="136" fill="black" fill-opacity="0.45"/>
<path d="M95.5635 83.8555L100.5 88.0083L95.5635 92.1685L94.4282 91.0112L98.0537 88.0229L94.4282 85.0127L95.5635 83.8555ZM104.636 83.8555L109.572 88.0083L104.636 92.1685L103.5 91.0112L107.126 88.0229L103.5 85.0127L104.636 83.8555Z" fill="#F76363"/>
<path d="M125.966 92V87.8325H122.714V92H120.912V82.4272H122.714V86.2725H125.966V82.4272H127.767V92H125.966ZM136.788 87.708C136.788 87.8301 136.783 87.9888 136.774 88.1841C136.769 88.3794 136.759 88.5625 136.744 88.7334H131.852C131.852 89.0605 131.901 89.3486 131.998 89.5977C132.101 89.8467 132.242 90.0566 132.423 90.2275C132.609 90.3936 132.828 90.5205 133.082 90.6084C133.341 90.6963 133.627 90.7402 133.939 90.7402C134.3 90.7402 134.686 90.7134 135.096 90.6597C135.511 90.6011 135.941 90.5083 136.385 90.3813V91.8022C136.195 91.856 135.987 91.9048 135.763 91.9487C135.538 91.9927 135.309 92.0317 135.074 92.0659C134.84 92.1001 134.603 92.1245 134.364 92.1392C134.125 92.1587 133.893 92.1685 133.668 92.1685C133.102 92.1685 132.594 92.0879 132.145 91.9268C131.696 91.7656 131.315 91.5288 131.002 91.2163C130.69 90.8989 130.45 90.5083 130.284 90.0444C130.118 89.5806 130.035 89.0435 130.035 88.4331C130.035 87.8276 130.118 87.2783 130.284 86.7852C130.45 86.2871 130.685 85.8623 130.987 85.5107C131.29 85.1543 131.656 84.8809 132.086 84.6904C132.521 84.4951 133.004 84.3975 133.536 84.3975C134.064 84.3975 134.53 84.4805 134.935 84.6465C135.341 84.8076 135.68 85.0347 135.953 85.3276C136.227 85.6206 136.434 85.9697 136.576 86.375C136.717 86.7803 136.788 87.2246 136.788 87.708ZM134.972 87.4517C134.977 87.1587 134.94 86.9048 134.862 86.6899C134.784 86.4702 134.676 86.2896 134.54 86.1479C134.408 86.0063 134.252 85.9014 134.071 85.833C133.895 85.7646 133.705 85.7305 133.5 85.7305C133.05 85.7305 132.682 85.8818 132.394 86.1846C132.106 86.4824 131.935 86.9048 131.881 87.4517H134.972ZM141.781 83.0425H139.679V81.6509H143.612V90.6084H145.758V92H139.422V90.6084H141.781V83.0425ZM150.853 83.0425H148.751V81.6509H152.684V90.6084H154.83V92H148.494V90.6084H150.853V83.0425ZM164.224 88.2207C164.224 88.8066 164.141 89.3438 163.975 89.832C163.809 90.3154 163.57 90.7305 163.257 91.0771C162.945 91.4238 162.562 91.6924 162.108 91.8828C161.653 92.0732 161.136 92.1685 160.555 92.1685C160.003 92.1685 159.51 92.0879 159.075 91.9268C158.641 91.7656 158.272 91.5264 157.969 91.209C157.667 90.8867 157.435 90.4863 157.274 90.0078C157.112 89.5244 157.032 88.9629 157.032 88.3232C157.032 87.7324 157.115 87.1953 157.281 86.7119C157.452 86.2285 157.693 85.8159 158.006 85.4741C158.323 85.1323 158.709 84.8687 159.163 84.6831C159.617 84.4927 160.13 84.3975 160.701 84.3975C161.258 84.3975 161.754 84.4805 162.188 84.6465C162.623 84.8076 162.991 85.0493 163.294 85.3716C163.597 85.6938 163.826 86.0942 163.983 86.5728C164.144 87.0464 164.224 87.5957 164.224 88.2207ZM162.364 88.2646C162.364 87.4932 162.217 86.9146 161.924 86.5288C161.636 86.1382 161.209 85.9429 160.643 85.9429C160.33 85.9429 160.064 86.0039 159.844 86.126C159.625 86.248 159.444 86.4165 159.302 86.6313C159.161 86.8413 159.056 87.0879 158.987 87.3711C158.924 87.6543 158.892 87.957 158.892 88.2793C158.892 89.0557 159.048 89.6416 159.361 90.0371C159.673 90.4277 160.101 90.623 160.643 90.623C160.941 90.623 161.199 90.5645 161.419 90.4473C161.639 90.3252 161.817 90.1592 161.954 89.9492C162.09 89.7344 162.193 89.4829 162.261 89.1948C162.33 88.9067 162.364 88.5967 162.364 88.2646ZM182.119 92H180.003L179.058 89.0483L178.714 87.8472L178.384 89.0776L177.454 92H175.425L174.89 82.4272H176.48L176.707 88.5649L176.765 90.2422L177.197 88.748L178.252 85.3423H179.387L180.501 88.9531L180.86 90.2275L180.889 88.7334L181.131 82.4272H182.661L182.119 92ZM191.44 88.2207C191.44 88.8066 191.357 89.3438 191.191 89.832C191.025 90.3154 190.786 90.7305 190.474 91.0771C190.161 91.4238 189.778 91.6924 189.324 91.8828C188.87 92.0732 188.352 92.1685 187.771 92.1685C187.219 92.1685 186.726 92.0879 186.292 91.9268C185.857 91.7656 185.488 91.5264 185.186 91.209C184.883 90.8867 184.651 90.4863 184.49 90.0078C184.329 89.5244 184.248 88.9629 184.248 88.3232C184.248 87.7324 184.331 87.1953 184.497 86.7119C184.668 86.2285 184.91 85.8159 185.222 85.4741C185.54 85.1323 185.925 84.8687 186.379 84.6831C186.833 84.4927 187.346 84.3975 187.917 84.3975C188.474 84.3975 188.97 84.4805 189.404 84.6465C189.839 84.8076 190.208 85.0493 190.51 85.3716C190.813 85.6938 191.042 86.0942 191.199 86.5728C191.36 87.0464 191.44 87.5957 191.44 88.2207ZM189.58 88.2646C189.58 87.4932 189.434 86.9146 189.141 86.5288C188.853 86.1382 188.425 85.9429 187.859 85.9429C187.546 85.9429 187.28 86.0039 187.061 86.126C186.841 86.248 186.66 86.4165 186.519 86.6313C186.377 86.8413 186.272 87.0879 186.204 87.3711C186.14 87.6543 186.108 87.957 186.108 88.2793C186.108 89.0557 186.265 89.6416 186.577 90.0371C186.89 90.4277 187.317 90.623 187.859 90.623C188.157 90.623 188.416 90.5645 188.635 90.4473C188.855 90.3252 189.033 90.1592 189.17 89.9492C189.307 89.7344 189.409 89.4829 189.478 89.1948C189.546 88.9067 189.58 88.5967 189.58 88.2646ZM198.601 87.4517C198.611 87.1733 198.596 86.9365 198.557 86.7412C198.523 86.5459 198.464 86.3848 198.381 86.2578C198.303 86.1309 198.205 86.0381 198.088 85.9795C197.971 85.9209 197.837 85.8916 197.685 85.8916C197.422 85.8916 197.148 86.0015 196.865 86.2212C196.587 86.436 196.279 86.7925 195.942 87.2905V92H194.111V84.5586H195.73L195.796 85.6426C195.918 85.4521 196.054 85.2812 196.206 85.1299C196.362 84.9785 196.533 84.8491 196.719 84.7417C196.909 84.6294 197.119 84.5439 197.348 84.4854C197.578 84.4268 197.829 84.3975 198.103 84.3975C198.479 84.3975 198.811 84.4634 199.099 84.5952C199.392 84.7222 199.636 84.9126 199.831 85.1665C200.032 85.4204 200.178 85.7402 200.271 86.126C200.368 86.5068 200.41 86.9487 200.395 87.4517H198.601ZM205.285 83.0425H203.183V81.6509H207.116V90.6084H209.262V92H202.927V90.6084H205.285V83.0425ZM216.635 92L216.591 90.9014C216.435 91.0918 216.274 91.2651 216.108 91.4214C215.942 91.5776 215.764 91.7119 215.573 91.8242C215.383 91.9316 215.178 92.0146 214.958 92.0732C214.743 92.1367 214.504 92.1685 214.24 92.1685C213.801 92.1685 213.41 92.0806 213.068 91.9048C212.726 91.729 212.438 91.48 212.204 91.1577C211.975 90.8306 211.799 90.4351 211.677 89.9712C211.555 89.5073 211.494 88.9897 211.494 88.4185C211.494 87.7349 211.589 87.144 211.779 86.646C211.975 86.1431 212.243 85.728 212.585 85.4009C212.927 85.0688 213.332 84.8247 213.801 84.6685C214.269 84.5073 214.78 84.4268 215.331 84.4268C215.517 84.4268 215.703 84.439 215.888 84.4634C216.079 84.4878 216.247 84.5195 216.393 84.5586V81.6509H218.181V92H216.635ZM213.369 88.3379C213.369 88.748 213.395 89.0996 213.449 89.3926C213.508 89.6807 213.591 89.9175 213.698 90.103C213.81 90.2886 213.947 90.4253 214.108 90.5132C214.269 90.5962 214.453 90.6377 214.658 90.6377C214.96 90.6377 215.248 90.5156 215.522 90.2715C215.795 90.0273 216.086 89.6929 216.393 89.2681V86.0161C216.252 85.9624 216.076 85.9185 215.866 85.8843C215.661 85.8501 215.454 85.833 215.244 85.833C214.955 85.833 214.697 85.8916 214.467 86.0088C214.238 86.126 214.04 86.292 213.874 86.5068C213.713 86.7217 213.588 86.9854 213.5 87.2979C213.412 87.6055 213.369 87.9521 213.369 88.3379Z" fill="white"/>
<path d="M50.0374 156H263.963L294 202H157H20L50.0374 156Z" fill="#D2D2D2" fill-opacity="0.95"/>
</g>
<defs>
<filter id="filter0_d_1_69" x="0" y="0" width="334" height="242" filterUnits="userSpaceOnUse" color-interpolation-filters="sRGB">
<feFlood flood-opacity="0" result="BackgroundImageFix"/>
<feColorMatrix in="SourceAlpha" type="matrix" values="0 0 0 0 0 0 0 0 0 0 0 0 0 0 0 0 0 0 127 0" result="hardAlpha"/>
<feOffset dx="10" dy="10"/>
<feGaussianBlur stdDeviation="15"/>
<feComposite in2="hardAlpha" operator="out"/>
<feColorMatrix type="matrix" values="0 0 0 0 0 0 0 0 0 0 0 0 0 0 0 0 0 0 0.51 0"/>
<feBlend mode="normal" in2="BackgroundImageFix" result="effect1_dropShadow_1_69"/>
<feBlend mode="normal" in="SourceGraphic" in2="effect1_dropShadow_1_69" result="shape"/>
</filter>
</defs>
</svg>
