<svg width="215" height="57" viewBox="0 0 215 57" fill="none" xmlns="http://www.w3.org/2000/svg">
<path d="M43.016 16.232H48.092C50.012 16.232 51.38 16.556 52.196 17.204C53.036 17.828 53.576 18.956 53.816 20.588C54.056 22.196 54.176 24.872 54.176 28.616C54.176 32.336 54.056 35.012 53.816 36.644C53.576 38.276 53.036 39.416 52.196 40.064C51.38 40.688 50.012 41 48.092 41H43.016V16.232ZM48.092 38.696C49.244 38.696 50.048 38.516 50.504 38.156C50.96 37.796 51.272 36.944 51.44 35.6C51.608 34.256 51.692 31.928 51.692 28.616C51.692 25.304 51.608 22.976 51.44 21.632C51.272 20.288 50.96 19.436 50.504 19.076C50.048 18.716 49.244 18.536 48.092 18.536H45.5V38.696H48.092ZM59.7265 41V16.232H69.1585V18.536H62.2465V27.32H68.2945V29.624H62.2465V38.696H69.1585V41H59.7265ZM77.2109 41L72.3869 16.232H74.9429L78.8669 37.616H79.1189L83.0069 16.232H85.4549L80.6669 41H77.2109ZM97.4477 41V16.232H99.9677V38.66H106.16V41H97.4477ZM110.361 41V16.232H119.793V18.536H112.881V27.32H118.929V29.624H112.881V38.696H119.793V41H110.361ZM134.398 41L132.994 34.124H127.234L125.866 41H123.346L128.422 16.232H131.878L136.918 41H134.398ZM130.222 19.544H130.006L127.594 31.892H132.634L130.222 19.544ZM150.533 41L147.905 31.136H147.329H144.017V41H141.497V16.232H147.509C149.045 16.232 150.185 16.544 150.929 17.168C151.673 17.768 152.153 18.584 152.369 19.616C152.585 20.624 152.693 21.98 152.693 23.684C152.693 25.532 152.537 27.02 152.225 28.148C151.913 29.276 151.241 30.08 150.209 30.56L153.125 41H150.533ZM147.221 28.868C148.109 28.868 148.757 28.688 149.165 28.328C149.597 27.968 149.873 27.44 149.993 26.744C150.113 26.048 150.173 25.028 150.173 23.684C150.173 22.34 150.113 21.332 149.993 20.66C149.873 19.964 149.597 19.436 149.165 19.076C148.757 18.716 148.109 18.536 147.221 18.536H144.017V28.868H147.221ZM167.352 41L160.764 22.568H160.62V41H158.208V16.232H160.764L167.244 34.268H167.424V16.232H169.8V41H167.352ZM175.941 41V16.232H178.425V41H175.941ZM193.741 41L187.153 22.568H187.009V41H184.597V16.232H187.153L193.633 34.268H193.813V16.232H196.189V41H193.741ZM207.659 30.056V27.788H212.951V40.64C212.231 40.832 211.415 40.988 210.503 41.108C209.591 41.228 208.763 41.288 208.019 41.288C206.243 41.288 204.911 40.976 204.023 40.352C203.159 39.704 202.559 38.504 202.223 36.752C201.887 35 201.719 32.288 201.719 28.616C201.719 24.968 201.887 22.268 202.223 20.516C202.559 18.764 203.171 17.564 204.059 16.916C204.947 16.268 206.327 15.944 208.199 15.944C208.967 15.944 209.795 16.004 210.683 16.124C211.571 16.244 212.315 16.412 212.915 16.628V18.752C212.243 18.608 211.535 18.488 210.791 18.392C210.071 18.296 209.495 18.248 209.063 18.248C207.527 18.248 206.447 18.428 205.823 18.788C205.223 19.148 204.803 20.024 204.563 21.416C204.323 22.808 204.203 25.208 204.203 28.616C204.203 31.808 204.287 34.1 204.455 35.492C204.623 36.86 204.959 37.796 205.463 38.3C205.991 38.804 206.855 39.056 208.055 39.056C209.063 39.056 209.915 38.948 210.611 38.732V30.056H207.659Z" fill="white"/>
<rect x="14.3553" y="14.7071" width="19.3015" height="19.3015" transform="rotate(45 14.3553 14.7071)" stroke="white"/>
<rect x="14.3223" y="19.7071" width="12.1838" height="12.1838" transform="rotate(45 14.3223 19.7071)" stroke="white"/>
</svg>
