<svg width="103" height="19" viewBox="0 0 103 19" fill="none" xmlns="http://www.w3.org/2000/svg">
<path d="M5.76172 18H2.04688L2.07031 15.2578H5.76172C6.68359 15.2578 7.46094 15.0508 8.09375 14.6367C8.72656 14.2148 9.20312 13.6016 9.52344 12.7969C9.85156 11.9922 10.0156 11.0195 10.0156 9.87891V9.04688C10.0156 8.17188 9.92188 7.40234 9.73438 6.73828C9.55469 6.07422 9.28516 5.51562 8.92578 5.0625C8.56641 4.60938 8.125 4.26953 7.60156 4.04297C7.07812 3.80859 6.47656 3.69141 5.79688 3.69141H1.97656V0.9375H5.79688C6.9375 0.9375 7.98047 1.13281 8.92578 1.52344C9.87891 1.90625 10.7031 2.45703 11.3984 3.17578C12.0938 3.89453 12.6289 4.75391 13.0039 5.75391C13.3867 6.74609 13.5781 7.85156 13.5781 9.07031V9.87891C13.5781 11.0898 13.3867 12.1953 13.0039 13.1953C12.6289 14.1953 12.0938 15.0547 11.3984 15.7734C10.7109 16.4844 9.88672 17.0352 8.92578 17.4258C7.97266 17.8086 6.91797 18 5.76172 18ZM4.03906 0.9375V18H0.523438V0.9375H4.03906ZM21.7578 18.2344C20.7734 18.2344 19.8906 18.0781 19.1094 17.7656C18.3281 17.4453 17.6641 17.0039 17.1172 16.4414C16.5781 15.8789 16.1641 15.2266 15.875 14.4844C15.5859 13.7344 15.4414 12.9375 15.4414 12.0938V11.625C15.4414 10.6641 15.5781 9.78516 15.8516 8.98828C16.125 8.19141 16.5156 7.5 17.0234 6.91406C17.5391 6.32812 18.1641 5.87891 18.8984 5.56641C19.6328 5.24609 20.4609 5.08594 21.3828 5.08594C22.2812 5.08594 23.0781 5.23438 23.7734 5.53125C24.4688 5.82812 25.0508 6.25 25.5195 6.79688C25.9961 7.34375 26.3555 8 26.5977 8.76562C26.8398 9.52344 26.9609 10.3672 26.9609 11.2969V12.7031H16.8828V10.4531H23.6445V10.1953C23.6445 9.72656 23.5586 9.30859 23.3867 8.94141C23.2227 8.56641 22.9727 8.26953 22.6367 8.05078C22.3008 7.83203 21.8711 7.72266 21.3477 7.72266C20.9023 7.72266 20.5195 7.82031 20.1992 8.01562C19.8789 8.21094 19.6172 8.48438 19.4141 8.83594C19.2188 9.1875 19.0703 9.60156 18.9688 10.0781C18.875 10.5469 18.8281 11.0625 18.8281 11.625V12.0938C18.8281 12.6016 18.8984 13.0703 19.0391 13.5C19.1875 13.9297 19.3945 14.3008 19.6602 14.6133C19.9336 14.9258 20.2617 15.168 20.6445 15.3398C21.0352 15.5117 21.4766 15.5977 21.9688 15.5977C22.5781 15.5977 23.1445 15.4805 23.668 15.2461C24.1992 15.0039 24.6562 14.6406 25.0391 14.1562L26.6797 15.9375C26.4141 16.3203 26.0508 16.6875 25.5898 17.0391C25.1367 17.3906 24.5898 17.6797 23.9492 17.9062C23.3086 18.125 22.5781 18.2344 21.7578 18.2344ZM33.0312 15.5391L35.8438 5.32031H39.3711L35.0938 18H32.9609L33.0312 15.5391ZM31.0977 5.32031L33.9219 15.5508L33.9805 18H31.8359L27.5586 5.32031H31.0977ZM39.3125 16.3711C39.3125 15.8711 39.4844 15.4531 39.8281 15.1172C40.1797 14.7812 40.6445 14.6133 41.2227 14.6133C41.8008 14.6133 42.2617 14.7812 42.6055 15.1172C42.957 15.4531 43.1328 15.8711 43.1328 16.3711C43.1328 16.8711 42.957 17.2891 42.6055 17.625C42.2617 17.9609 41.8008 18.1289 41.2227 18.1289C40.6445 18.1289 40.1797 17.9609 39.8281 17.625C39.4844 17.2891 39.3125 16.8711 39.3125 16.3711ZM49.8359 0.9375V18H46.3203V0.9375H49.8359ZM56.6328 8.22656V10.9688H48.875V8.22656H56.6328ZM57.4531 0.9375V3.69141H48.875V0.9375H57.4531ZM62.8438 5.32031V18H59.457V5.32031H62.8438ZM59.2461 2.01562C59.2461 1.52344 59.418 1.11719 59.7617 0.796875C60.1055 0.476563 60.5664 0.316406 61.1445 0.316406C61.7148 0.316406 62.1719 0.476563 62.5156 0.796875C62.8672 1.11719 63.043 1.52344 63.043 2.01562C63.043 2.50781 62.8672 2.91406 62.5156 3.23438C62.1719 3.55469 61.7148 3.71484 61.1445 3.71484C60.5664 3.71484 60.1055 3.55469 59.7617 3.23438C59.418 2.91406 59.2461 2.50781 59.2461 2.01562ZM73.1328 14.9648V5.32031H76.5078V18H73.332L73.1328 14.9648ZM73.5078 12.3633L74.5039 12.3398C74.5039 13.1836 74.4062 13.9688 74.2109 14.6953C74.0156 15.4141 73.7227 16.0391 73.332 16.5703C72.9414 17.0938 72.4492 17.5039 71.8555 17.8008C71.2617 18.0898 70.5625 18.2344 69.7578 18.2344C69.1406 18.2344 68.5703 18.1484 68.0469 17.9766C67.5312 17.7969 67.0859 17.5195 66.7109 17.1445C66.3438 16.7617 66.0547 16.2734 65.8438 15.6797C65.6406 15.0781 65.5391 14.3555 65.5391 13.5117V5.32031H68.9141V13.5352C68.9141 13.9102 68.957 14.2266 69.043 14.4844C69.1367 14.7422 69.2656 14.9531 69.4297 15.1172C69.5938 15.2812 69.7852 15.3984 70.0039 15.4688C70.2305 15.5391 70.4805 15.5742 70.7539 15.5742C71.4492 15.5742 71.9961 15.4336 72.3945 15.1523C72.8008 14.8711 73.0859 14.4883 73.25 14.0039C73.4219 13.5117 73.5078 12.9648 73.5078 12.3633ZM85.9414 14.4961C85.9414 14.2539 85.8711 14.0352 85.7305 13.8398C85.5898 13.6445 85.3281 13.4648 84.9453 13.3008C84.5703 13.1289 84.0273 12.9727 83.3164 12.832C82.6758 12.6914 82.0781 12.5156 81.5234 12.3047C80.9766 12.0859 80.5 11.8242 80.0938 11.5195C79.6953 11.2148 79.3828 10.8555 79.1562 10.4414C78.9297 10.0195 78.8164 9.53906 78.8164 9C78.8164 8.46875 78.9297 7.96875 79.1562 7.5C79.3906 7.03125 79.7227 6.61719 80.1523 6.25781C80.5898 5.89062 81.1211 5.60547 81.7461 5.40234C82.3789 5.19141 83.0898 5.08594 83.8789 5.08594C84.9805 5.08594 85.9258 5.26172 86.7148 5.61328C87.5117 5.96484 88.1211 6.44922 88.543 7.06641C88.9727 7.67578 89.1875 8.37109 89.1875 9.15234H85.8125C85.8125 8.82422 85.7422 8.53125 85.6016 8.27344C85.4688 8.00781 85.2578 7.80078 84.9688 7.65234C84.6875 7.49609 84.3203 7.41797 83.8672 7.41797C83.4922 7.41797 83.168 7.48438 82.8945 7.61719C82.6211 7.74219 82.4102 7.91406 82.2617 8.13281C82.1211 8.34375 82.0508 8.57812 82.0508 8.83594C82.0508 9.03125 82.0898 9.20703 82.168 9.36328C82.2539 9.51172 82.3906 9.64844 82.5781 9.77344C82.7656 9.89844 83.0078 10.0156 83.3047 10.125C83.6094 10.2266 83.9844 10.3203 84.4297 10.4062C85.3438 10.5938 86.1602 10.8398 86.8789 11.1445C87.5977 11.4414 88.168 11.8477 88.5898 12.3633C89.0117 12.8711 89.2227 13.5391 89.2227 14.3672C89.2227 14.9297 89.0977 15.4453 88.8477 15.9141C88.5977 16.3828 88.2383 16.793 87.7695 17.1445C87.3008 17.4883 86.7383 17.7578 86.082 17.9531C85.4336 18.1406 84.7031 18.2344 83.8906 18.2344C82.7109 18.2344 81.7109 18.0234 80.8906 17.6016C80.0781 17.1797 79.4609 16.6445 79.0391 15.9961C78.625 15.3398 78.418 14.668 78.418 13.9805H81.6172C81.6328 14.4414 81.75 14.8125 81.9688 15.0938C82.1953 15.375 82.4805 15.5781 82.8242 15.7031C83.1758 15.8281 83.5547 15.8906 83.9609 15.8906C84.3984 15.8906 84.7617 15.832 85.0508 15.7148C85.3398 15.5898 85.5586 15.4258 85.707 15.2227C85.8633 15.0117 85.9414 14.7695 85.9414 14.4961ZM98.2578 15.1406V9.49219C98.2578 9.08594 98.1914 8.73828 98.0586 8.44922C97.9258 8.15234 97.7188 7.92188 97.4375 7.75781C97.1641 7.59375 96.8086 7.51172 96.3711 7.51172C95.9961 7.51172 95.6719 7.57812 95.3984 7.71094C95.125 7.83594 94.9141 8.01953 94.7656 8.26172C94.6172 8.49609 94.543 8.77344 94.543 9.09375H91.168C91.168 8.55469 91.293 8.04297 91.543 7.55859C91.793 7.07422 92.1562 6.64844 92.6328 6.28125C93.1094 5.90625 93.6758 5.61328 94.332 5.40234C94.9961 5.19141 95.7383 5.08594 96.5586 5.08594C97.543 5.08594 98.418 5.25 99.1836 5.57812C99.9492 5.90625 100.551 6.39844 100.988 7.05469C101.434 7.71094 101.656 8.53125 101.656 9.51562V14.9414C101.656 15.6367 101.699 16.207 101.785 16.6523C101.871 17.0898 101.996 17.4727 102.16 17.8008V18H98.75C98.5859 17.6562 98.4609 17.2266 98.375 16.7109C98.2969 16.1875 98.2578 15.6641 98.2578 15.1406ZM98.7031 10.2773L98.7266 12.1875H96.8398C96.3945 12.1875 96.0078 12.2383 95.6797 12.3398C95.3516 12.4414 95.082 12.5859 94.8711 12.7734C94.6602 12.9531 94.5039 13.1641 94.4023 13.4062C94.3086 13.6484 94.2617 13.9141 94.2617 14.2031C94.2617 14.4922 94.3281 14.7539 94.4609 14.9883C94.5938 15.2148 94.7852 15.3945 95.0352 15.5273C95.2852 15.6523 95.5781 15.7148 95.9141 15.7148C96.4219 15.7148 96.8633 15.6133 97.2383 15.4102C97.6133 15.207 97.9023 14.957 98.1055 14.6602C98.3164 14.3633 98.4258 14.082 98.4336 13.8164L99.3242 15.2461C99.1992 15.5664 99.0273 15.8984 98.8086 16.2422C98.5977 16.5859 98.3281 16.9102 98 17.2148C97.6719 17.5117 97.2773 17.7578 96.8164 17.9531C96.3555 18.1406 95.8086 18.2344 95.1758 18.2344C94.3711 18.2344 93.6406 18.0742 92.9844 17.7539C92.3359 17.4258 91.8203 16.9766 91.4375 16.4062C91.0625 15.8281 90.875 15.1719 90.875 14.4375C90.875 13.7734 91 13.1836 91.25 12.668C91.5 12.1523 91.8672 11.7188 92.3516 11.3672C92.8438 11.0078 93.457 10.7383 94.1914 10.5586C94.9258 10.3711 95.7773 10.2773 96.7461 10.2773H98.7031Z" fill="#E1E1E6"/>
</svg>
